<?xml version="1.0" standalone="no"?><!DOCTYPE svg PUBLIC "-//W3C//DTD SVG 1.1//EN" "http://www.w3.org/Graphics/SVG/1.1/DTD/svg11.dtd"><svg t="1573228908544" class="icon" viewBox="0 0 1024 1024" version="1.1" xmlns="http://www.w3.org/2000/svg" p-id="23908" xmlns:xlink="http://www.w3.org/1999/xlink" width="128" height="128"><defs><style type="text/css"></style></defs><path d="M512 513.155756m-120.198646 0a120.198646 120.198646 0 1 0 240.397292 0 120.198646 120.198646 0 1 0-240.397292 0Z" p-id="23909"></path><path d="M925.760722 561.697517l-9.246049-4.623025c-23.115124-13.869074-25.426637-34.672686-25.426637-43.918736s2.311512-30.049661 25.426637-43.918736l9.246049-4.623025c27.738149-16.180587 48.541761-43.918736 57.787811-76.279909 9.24605-32.361174 4.623025-64.722348-11.557562-94.772009l-39.295711-69.345373c-16.180587-27.738149-43.918736-48.541761-76.27991-57.78781-32.361174-9.24605-67.03386-4.623025-94.772009 11.557562l-9.24605 6.934537c-23.115124 13.869074-43.918736 4.623025-50.853273 0-6.934537-4.623025-25.426637-18.492099-25.426637-43.918736v-11.557562c0-69.345372-55.476298-124.82167-124.82167-124.82167h-80.902934c-69.345372 0-124.82167 55.476298-124.821671 124.82167v11.557562c0 23.115124-13.869074 34.672686-20.803612 41.607224-13.869074 9.24605-34.672686 16.180587-55.476298 2.311512l-9.246049-6.934537c-2.311512-2.311512-4.623025-2.311512-9.24605-4.623025-57.78781-27.738149-127.133183-4.623025-159.494357 50.853273l-41.607223 69.345373c-16.180587 27.738149-20.803612 62.410835-11.557562 94.772009 9.24605 32.361174 30.049661 60.099323 57.78781 76.279909l9.24605 4.623025c23.115124 13.869074 25.426637 34.672686 25.426636 43.918736s-2.311512 30.049661-25.426636 43.918736l-9.24605 4.623025c-27.738149 16.180587-48.541761 43.918736-57.78781 76.27991-9.24605 32.361174-4.623025 64.722348 11.557562 94.772009l39.295711 69.345372c18.492099 30.049661 43.918736 48.541761 76.27991 57.787811 32.361174 9.24605 64.722348 4.623025 94.772009-11.557563l9.246049-4.623024c23.115124-13.869074 43.918736-4.623025 50.853274 0 6.934537 4.623025 25.426637 18.492099 25.426636 43.918735v11.557563c0 69.345372 55.476298 124.82167 124.821671 124.82167h80.902934c69.345372 0 124.82167-55.476298 124.82167-124.82167v-11.557563c0-25.426637 18.492099-39.295711 25.426637-43.918735 6.934537-4.623025 27.738149-13.869074 50.853273 0l9.24605 4.623024c27.738149 16.180587 62.410835 20.803612 94.772009 11.557563 32.361174-9.24605 60.099323-30.049661 76.27991-57.787811l39.295711-69.345372c16.180587-27.738149 20.803612-62.410835 11.557562-94.772009-9.24605-32.361174-27.738149-57.78781-57.787811-76.27991zM512 716.568849c-110.952596 0-201.10158-90.148984-201.10158-201.10158 0-110.952596 90.148984-203.413093 201.10158-203.413093 110.952596 0 201.10158 90.148984 201.10158 201.10158 0 110.952596-90.148984 203.413093-201.10158 203.413093z" p-id="23910"></path></svg>